# xmcd
#
# Track frame offsets:
#	150
#	14478
#	29490
#	44478
#	62126
#	79981
#	97099
#	111320
#	126203
#	141177
#	158826
#	176524
#
# Disc length: 2580 seconds
#
# Revision: 1
# Processed by: cddbd v1.5.2PL0 Copyright (c) Steve Scherf et al.
# Submitted via: audiograbber 1.83.01
#
DISCID=ab0a120c
DTITLE=Kentucky Head Hunters - CDG 20229  Chartbuster
DYEAR=1900
DGENRE=
TTITLE0=Dumas Walker Guide Vocal
TTITLE1=Oh Lonsome Me Guide Vocal
TTITLE2=Rag Top  Guide Vocal
TTITLE3=Rock "N" Angel Guide Vocal
TTITLE4=Walk Softly On the Heart Of Mine   Guide Vocal
TTITLE5=With Body and Soul Guide Vocal
TTITLE6=Dumas Walker
TTITLE7=Oh Lonsome Me
TTITLE8=Rag Top
TTITLE9=Rock "N" Angel
TTITLE10=Walk Softly On the Heart Of Mine
TTITLE11=With Body and Soul
EXTD=
EXTT0=
EXTT1=
EXTT2=
EXTT3=
EXTT4=
EXTT5=
EXTT6=
EXTT7=
EXTT8=
EXTT9=
EXTT10=
EXTT11=
PLAYORDER=
